<mxfile host="app.diagrams.net" modified="2023-12-21T03:46:30.071Z" agent="Mozilla/5.0 (Windows NT 10.0; Win64; x64) AppleWebKit/537.36 (KHTML, like Gecko) Chrome/120.0.0.0 Safari/537.36" etag="P-7nBW90SiRCNMwT7-1p" version="22.1.11" type="github">
  <diagram name="Page-1" id="2YBvvXClWsGukQMizWep">
    <mxGraphModel dx="794" dy="2612" grid="1" gridSize="10" guides="1" tooltips="1" connect="1" arrows="1" fold="1" page="1" pageScale="1" pageWidth="850" pageHeight="1100" math="0" shadow="0">
      <root>
        <mxCell id="0" />
        <mxCell id="1" parent="0" />
        <mxCell id="qMFdNoZjd1FySm_rqLJS-1" value="Receive" style="rounded=1;whiteSpace=wrap;html=1;" vertex="1" parent="1">
          <mxGeometry x="40" y="-1441" width="120" height="60" as="geometry" />
        </mxCell>
        <mxCell id="qMFdNoZjd1FySm_rqLJS-2" value="" style="sketch=0;points=[[0,0,0],[0.25,0,0],[0.5,0,0],[0.75,0,0],[1,0,0],[0,1,0],[0.25,1,0],[0.5,1,0],[0.75,1,0],[1,1,0],[0,0.25,0],[0,0.5,0],[0,0.75,0],[1,0.25,0],[1,0.5,0],[1,0.75,0]];outlineConnect=0;fontColor=#232F3E;fillColor=#E7157B;strokeColor=#ffffff;dashed=0;verticalLabelPosition=bottom;verticalAlign=top;align=center;html=1;fontSize=12;fontStyle=0;aspect=fixed;shape=mxgraph.aws4.resourceIcon;resIcon=mxgraph.aws4.sqs;" vertex="1" parent="1">
          <mxGeometry x="590" y="-1450" width="78" height="78" as="geometry" />
        </mxCell>
        <mxCell id="qMFdNoZjd1FySm_rqLJS-3" value="" style="sketch=0;points=[[0,0,0],[0.25,0,0],[0.5,0,0],[0.75,0,0],[1,0,0],[0,1,0],[0.25,1,0],[0.5,1,0],[0.75,1,0],[1,1,0],[0,0.25,0],[0,0.5,0],[0,0.75,0],[1,0.25,0],[1,0.5,0],[1,0.75,0]];outlineConnect=0;fontColor=#232F3E;fillColor=#E7157B;strokeColor=#ffffff;dashed=0;verticalLabelPosition=bottom;verticalAlign=top;align=center;html=1;fontSize=12;fontStyle=0;aspect=fixed;shape=mxgraph.aws4.resourceIcon;resIcon=mxgraph.aws4.sqs;" vertex="1" parent="1">
          <mxGeometry x="230" y="-1449" width="78" height="78" as="geometry" />
        </mxCell>
        <mxCell id="qMFdNoZjd1FySm_rqLJS-4" value="Transcode" style="rounded=1;whiteSpace=wrap;html=1;" vertex="1" parent="1">
          <mxGeometry x="385" y="-1440" width="120" height="60" as="geometry" />
        </mxCell>
        <mxCell id="qMFdNoZjd1FySm_rqLJS-5" value="Publish &amp;amp; Notify" style="rounded=1;whiteSpace=wrap;html=1;" vertex="1" parent="1">
          <mxGeometry x="750" y="-1441" width="120" height="60" as="geometry" />
        </mxCell>
        <mxCell id="qMFdNoZjd1FySm_rqLJS-6" value="" style="endArrow=none;html=1;rounded=0;exitX=1;exitY=0.5;exitDx=0;exitDy=0;entryX=0;entryY=0.5;entryDx=0;entryDy=0;entryPerimeter=0;" edge="1" parent="1" source="qMFdNoZjd1FySm_rqLJS-1" target="qMFdNoZjd1FySm_rqLJS-3">
          <mxGeometry width="50" height="50" relative="1" as="geometry">
            <mxPoint x="390" y="-1401" as="sourcePoint" />
            <mxPoint x="440" y="-1451" as="targetPoint" />
          </mxGeometry>
        </mxCell>
        <mxCell id="qMFdNoZjd1FySm_rqLJS-7" value="" style="endArrow=none;html=1;rounded=0;exitX=1;exitY=0.5;exitDx=0;exitDy=0;exitPerimeter=0;entryX=0;entryY=0.5;entryDx=0;entryDy=0;" edge="1" parent="1" source="qMFdNoZjd1FySm_rqLJS-3" target="qMFdNoZjd1FySm_rqLJS-4">
          <mxGeometry width="50" height="50" relative="1" as="geometry">
            <mxPoint x="390" y="-1401" as="sourcePoint" />
            <mxPoint x="440" y="-1451" as="targetPoint" />
          </mxGeometry>
        </mxCell>
        <mxCell id="qMFdNoZjd1FySm_rqLJS-8" value="" style="endArrow=none;html=1;rounded=0;exitX=1;exitY=0.5;exitDx=0;exitDy=0;entryX=0;entryY=0.5;entryDx=0;entryDy=0;entryPerimeter=0;" edge="1" parent="1" source="qMFdNoZjd1FySm_rqLJS-4" target="qMFdNoZjd1FySm_rqLJS-2">
          <mxGeometry width="50" height="50" relative="1" as="geometry">
            <mxPoint x="390" y="-1401" as="sourcePoint" />
            <mxPoint x="440" y="-1451" as="targetPoint" />
          </mxGeometry>
        </mxCell>
        <mxCell id="qMFdNoZjd1FySm_rqLJS-9" value="" style="endArrow=none;html=1;rounded=0;entryX=1;entryY=0.5;entryDx=0;entryDy=0;entryPerimeter=0;exitX=0;exitY=0.5;exitDx=0;exitDy=0;" edge="1" parent="1" source="qMFdNoZjd1FySm_rqLJS-5" target="qMFdNoZjd1FySm_rqLJS-2">
          <mxGeometry width="50" height="50" relative="1" as="geometry">
            <mxPoint x="390" y="-1401" as="sourcePoint" />
            <mxPoint x="440" y="-1451" as="targetPoint" />
          </mxGeometry>
        </mxCell>
      </root>
    </mxGraphModel>
  </diagram>
</mxfile>
